<?xml version="1.0" encoding="UTF-8" standalone="no"?>
<!-- Generator: Adobe Illustrator 17.0.1, SVG Export Plug-In . SVG Version: 6.00 Build 0)  -->

<svg
   xmlns:dc="http://purl.org/dc/elements/1.1/"
   xmlns:cc="http://creativecommons.org/ns#"
   xmlns:rdf="http://www.w3.org/1999/02/22-rdf-syntax-ns#"
   xmlns:svg="http://www.w3.org/2000/svg"
   xmlns="http://www.w3.org/2000/svg"
   xmlns:xlink="http://www.w3.org/1999/xlink"
   xmlns:sodipodi="http://sodipodi.sourceforge.net/DTD/sodipodi-0.dtd"
   xmlns:inkscape="http://www.inkscape.org/namespaces/inkscape"
   version="1.1"
   x="0px"
   y="0px"
   width="86px"
   height="86px"
   viewBox="0 0 86 86"
   enable-background="new 0 0 86 86"
   xml:space="preserve"
   id="svg22"
   sodipodi:docname="harbour-allthenews.svg"
   inkscape:version="0.92.5 (2060ec1f9f, 2020-04-08)"><metadata
   id="metadata28"><rdf:RDF><cc:Work
       rdf:about=""><dc:format>image/svg+xml</dc:format><dc:type
         rdf:resource="http://purl.org/dc/dcmitype/StillImage" /><dc:title></dc:title></cc:Work></rdf:RDF></metadata><defs
   id="defs26">
	
		<radialGradient
   gradientUnits="userSpaceOnUse"
   gradientTransform="matrix(0.9977,0,0,0.9977,-0.1211,-0.135)"
   r="42.7984"
   cy="43.2344"
   cx="43.2205"
   id="SVGID_1_">
		<stop
   id="stop3"
   style="stop-color:#868688"
   offset="0" />
		<stop
   id="stop5"
   style="stop-color:#DADADA"
   offset="1" />
	</radialGradient>
	
	
	
		<linearGradient
   gradientTransform="translate(0,-3e-4)"
   y2="27.9064"
   x2="69.0939"
   y1="80.0942"
   x1="16.9061"
   gradientUnits="userSpaceOnUse"
   id="SVGID_2_">
		<stop
   id="stop12"
   style="stop-color:#003866"
   offset="0" />
		<stop
   id="stop14"
   style="stop-color:#2367A1"
   offset="1" />
	</linearGradient>
	
	
<linearGradient
   id="SVGID_1_-7"
   gradientUnits="userSpaceOnUse"
   x1="0.098343797"
   y1="6.1777954"
   x2="24.811939"
   y2="17.701935"
   gradientTransform="matrix(2.8775438,0,0,3.0816374,10.907734,5.5332467)"><stop
     offset="0"
     style="stop-color:#FFFFFF;stop-opacity:0.2"
     id="stop953" /><stop
     offset="1"
     style="stop-color:#FFFFFF;stop-opacity:0"
     id="stop955" /></linearGradient><linearGradient
   gradientTransform="translate(-84.51214,-3.28873)"
   y2="27.906401"
   x2="69.093903"
   y1="80.0942"
   x1="16.906099"
   gradientUnits="userSpaceOnUse"
   id="SVGID_2_-5"><stop
     id="stop12-3"
     style="stop-color:#003866"
     offset="0" /><stop
     id="stop14-5"
     style="stop-color:#2367A1"
     offset="1" /></linearGradient><radialGradient
   gradientUnits="userSpaceOnUse"
   gradientTransform="matrix(0.9977,0,0,0.9977,-84.63324,-3.42343)"
   r="42.798401"
   cy="43.234402"
   cx="43.220501"
   id="SVGID_1_-6"><stop
     id="stop3-2"
     style="stop-color:#868688"
     offset="0" /><stop
     id="stop5-9"
     style="stop-color:#DADADA"
     offset="1" /></radialGradient><linearGradient
   gradientTransform="matrix(1.3479622,0,0,2.0095336,-13.961323,-66.202694)"
   y2="27.906401"
   x2="69.093903"
   y1="80.0942"
   x1="16.906099"
   gradientUnits="userSpaceOnUse"
   id="SVGID_2_-5-2"><stop
     id="stop12-3-7"
     style="stop-color:#003866"
     offset="0" /><stop
     id="stop14-5-0"
     style="stop-color:#2367A1"
     offset="1" /></linearGradient><linearGradient
   y2="17.701935"
   x2="24.811939"
   y1="6.1777954"
   x1="0.098343797"
   gradientUnits="userSpaceOnUse"
   id="linearGradient1623"><stop
     id="stop1619"
     style="stop-color:#FFFFFF;stop-opacity:0.2"
     offset="0" /><stop
     id="stop1621"
     style="stop-color:#FFFFFF;stop-opacity:0"
     offset="1" /></linearGradient><linearGradient
   inkscape:collect="always"
   xlink:href="#SVGID_2_-5-2"
   id="linearGradient4848"
   x1="28.301607"
   y1="51.709171"
   x2="45.200558"
   y2="51.709171"
   gradientUnits="userSpaceOnUse" /><linearGradient
   inkscape:collect="always"
   xlink:href="#SVGID_2_-5-2"
   id="linearGradient4936"
   gradientUnits="userSpaceOnUse"
   gradientTransform="matrix(1.3479622,0,0,2.0095336,-13.961323,-66.202694)"
   x1="16.080614"
   y1="91.462212"
   x2="44.424374"
   y2="37.715244" /></defs><sodipodi:namedview
   pagecolor="#ffffff"
   bordercolor="#666666"
   borderopacity="1"
   objecttolerance="10"
   gridtolerance="10"
   guidetolerance="10"
   inkscape:pageopacity="0"
   inkscape:pageshadow="2"
   inkscape:window-width="1318"
   inkscape:window-height="958"
   id="namedview24"
   showgrid="false"
   inkscape:zoom="2.7220625"
   inkscape:cx="1.410233"
   inkscape:cy="50.565254"
   inkscape:window-x="1467"
   inkscape:window-y="28"
   inkscape:window-maximized="0"
   inkscape:current-layer="svg22" />
<path
   inkscape:connector-curvature="0"
   style="fill:url(#linearGradient4936);stroke-width:1.645836;fill-opacity:1"
   id="path17-9"
   d="m 87.001063,81.490591 c 0,2.11202 -1.140377,3.822133 -2.547646,3.822133 H 3.5487125 c -1.4072728,0 -2.5476492,-1.712122 -2.5476492,-3.822133 V 3.1348569 c 0,-2.1120197 1.1403764,-3.8221329 2.5476492,-3.8221329 H 84.453417 c 1.407269,0 2.547646,1.7121227 2.547646,3.8221329 z" /><g
   id="Layer_2"
   display="none">
</g>

<path
   id="path927"
   d="M 78.530013,14.778159 H 20.979137 c -0.795258,0 -1.438772,0.689155 -1.438772,1.540819 v 7.704093 h -7.193859 c -0.795259,0 -1.438772,0.689155 -1.438772,1.540819 v 38.520467 c 0,3.39913 2.582483,6.163275 5.755088,6.163275 h 57.550876 c 3.172604,0 5.755087,-2.764145 5.755087,-6.163275 V 16.318978 c 0,-0.851664 -0.643514,-1.540819 -1.438772,-1.540819 z"
   inkscape:connector-curvature="0"
   style="fill:#303c42;stroke-width:2.97784257" /><path
   id="path929"
   d="m 19.540365,64.084357 c 0,1.698811 -1.289836,3.081638 -2.877543,3.081638 -1.587708,0 -2.877544,-1.382827 -2.877544,-3.081638 V 27.104708 h 5.755087 z"
   inkscape:connector-curvature="0"
   style="fill:#e6e6e5;stroke-width:2.97784257" /><path
   id="path931"
   d="m 16.667915,60.418518 c 3.51e-4,1.817307 -0.08044,3.634992 -0.320703,5.434055 -0.05058,0.37881 -0.09027,0.794486 -0.115565,1.21994 0.146476,0.02464 0.2782,0.09348 0.431175,0.09348 1.587707,0 2.877543,-1.382827 2.877543,-3.081638 V 27.104708 h -2.87649 z"
   inkscape:connector-curvature="0"
   style="opacity:0.1;fill:#010101;stroke-width:2.97784257" /><path
   id="path933"
   d="m 77.091241,64.084357 c 0,1.698811 -1.289836,3.081638 -2.877543,3.081638 H 21.645131 c 0.491768,-0.907339 0.772778,-1.960634 0.772778,-3.081638 V 17.859796 h 54.673332 z"
   inkscape:connector-curvature="0"
   style="fill:#f3f3f3;stroke-width:2.97784257" /><path
   id="path935"
   d="m 26.734225,39.431258 c 0.795259,0 1.438772,-0.689156 1.438772,-1.540819 V 27.104708 h 1.438772 c 0.792448,0 1.438772,0.69066 1.438772,1.540819 v 9.244912 c 0,0.851663 0.643513,1.540819 1.438772,1.540819 0.795258,0 1.438771,-0.689156 1.438771,-1.540819 v -9.244912 c 0,-2.548971 -1.93616,-4.622456 -4.316315,-4.622456 h -2.877544 c -0.795259,0 -1.438772,0.689155 -1.438772,1.540819 v 12.326549 c 0,0.851663 0.643513,1.540819 1.438772,1.540819 z"
   inkscape:connector-curvature="0"
   style="fill:#303c42;stroke-width:2.97784257" /><path
   id="path937"
   d="m 38.2444,39.431258 h 5.755088 c 0.795258,0 1.438772,-0.689156 1.438772,-1.540819 0,-0.851662 -0.643514,-1.540818 -1.438772,-1.540818 h -4.316316 v -3.081638 h 2.877544 c 0.795258,0 1.438772,-0.689155 1.438772,-1.540818 0,-0.851664 -0.643514,-1.540819 -1.438772,-1.540819 h -2.877544 v -3.081638 h 4.316316 c 0.795258,0 1.438772,-0.689155 1.438772,-1.540818 0,-0.851664 -0.643514,-1.540819 -1.438772,-1.540819 H 38.2444 c -0.795259,0 -1.438772,0.689155 -1.438772,1.540819 v 12.326549 c 0,0.851663 0.643513,1.540819 1.438772,1.540819 z"
   inkscape:connector-curvature="0"
   style="fill:#303c42;stroke-width:2.97784257" /><path
   id="path939"
   d="m 51.435015,38.745113 c 0.266961,0.428841 0.716577,0.686145 1.197104,0.686145 0.480527,0 0.930143,-0.257317 1.197104,-0.686145 l 1.68044,-2.699443 1.680439,2.699443 c 0.266962,0.428841 0.716578,0.686145 1.197105,0.686145 0.480526,0 0.930143,-0.257317 1.197104,-0.686145 l 2.877544,-4.622457 c 0.157364,-0.25279 0.241667,-0.550722 0.241667,-0.854673 V 25.56389 c 0,-0.851664 -0.643513,-1.540819 -1.438772,-1.540819 -0.795258,0 -1.438771,0.689155 -1.438771,1.540819 v 7.237634 l -1.438772,2.311229 -1.438772,-2.311229 V 25.56389 c 0,-0.851664 -0.643514,-1.540819 -1.438772,-1.540819 -0.795258,0 -1.438772,0.689155 -1.438772,1.540819 v 7.237634 l -1.438772,2.311229 -1.438772,-2.311229 V 25.56389 c 0,-0.851664 -0.643514,-1.540819 -1.438772,-1.540819 -0.795258,0 -1.438772,0.689155 -1.438772,1.540819 v 7.704093 c 0,0.303951 0.08431,0.601883 0.241657,0.854673 z"
   inkscape:connector-curvature="0"
   style="fill:#303c42;stroke-width:2.97784257" /><path
   id="path941"
   d="m 69.897382,36.349621 h -2.877544 c -0.795258,0 -1.438772,0.689156 -1.438772,1.540818 0,0.851663 0.643514,1.540819 1.438772,1.540819 h 2.877544 c 2.380154,0 4.316316,-2.073486 4.316316,-4.622456 0,-2.548971 -1.936162,-4.622456 -4.316316,-4.622456 -0.79245,0 -1.438772,-0.69066 -1.438772,-1.540819 0,-0.850159 0.646322,-1.540819 1.438772,-1.540819 h 2.877544 c 0.795258,0 1.438772,-0.689155 1.438772,-1.540818 0,-0.851664 -0.643514,-1.540819 -1.438772,-1.540819 h -2.877544 c -2.380155,0 -4.316316,2.073485 -4.316316,4.622456 0,2.548972 1.936161,4.622456 4.316316,4.622456 0.79245,0 1.438772,0.69066 1.438772,1.540819 0,0.850159 -0.646322,1.540819 -1.438772,1.540819 z"
   inkscape:connector-curvature="0"
   style="fill:#303c42;stroke-width:2.97784257" /><path
   id="path943"
   d="m 26.734225,61.00272 h 20.142806 c 0.795259,0 1.438772,-0.689156 1.438772,-1.540819 V 44.053714 c 0,-0.851663 -0.643513,-1.540819 -1.438772,-1.540819 H 26.734225 c -0.795259,0 -1.438772,0.689156 -1.438772,1.540819 v 15.408187 c 0,0.851663 0.643513,1.540819 1.438772,1.540819 z"
   inkscape:connector-curvature="0"
   style="fill:#303c42;stroke-width:2.97784257" /><path
   id="path945"
   d="M 72.774926,45.594533 H 52.632119 c -0.795258,0 -1.438772,0.689156 -1.438772,1.540819 0,0.851662 0.643514,1.540818 1.438772,1.540818 h 20.142807 c 0.795258,0 1.438772,-0.689156 1.438772,-1.540818 0,-0.851663 -0.643514,-1.540819 -1.438772,-1.540819 z"
   inkscape:connector-curvature="0"
   style="fill:#303c42;stroke-width:2.97784257" /><path
   id="path947"
   d="M 72.774926,51.757808 H 52.632119 c -0.795258,0 -1.438772,0.689156 -1.438772,1.540818 0,0.851663 0.643514,1.540819 1.438772,1.540819 h 20.142807 c 0.795258,0 1.438772,-0.689156 1.438772,-1.540819 0,-0.851662 -0.643514,-1.540818 -1.438772,-1.540818 z"
   inkscape:connector-curvature="0"
   style="fill:#303c42;stroke-width:2.97784257" /><path
   id="path949"
   d="M 72.774926,57.921082 H 52.632119 c -0.795258,0 -1.438772,0.689156 -1.438772,1.540819 0,0.851663 0.643514,1.540819 1.438772,1.540819 h 20.142807 c 0.795258,0 1.438772,-0.689156 1.438772,-1.540819 0,-0.851663 -0.643514,-1.540819 -1.438772,-1.540819 z"
   inkscape:connector-curvature="0"
   style="fill:#303c42;stroke-width:2.97784257" /><rect
   id="rect951"
   height="12.32655"
   width="17.265263"
   y="45.594532"
   x="28.172997"
   style="fill:#3d82c4;stroke-width:2.97784257" /><path
   id="path958"
   d="M 78.530013,14.778159 H 20.979137 c -0.795258,0 -1.438772,0.689155 -1.438772,1.540819 v 7.704093 h -7.193859 c -0.795259,0 -1.438772,0.689155 -1.438772,1.540819 v 38.520467 c 0,3.39913 2.582483,6.163275 5.755088,6.163275 h 57.550876 c 3.172604,0 5.755087,-2.764145 5.755087,-6.163275 V 16.318978 c 0,-0.851664 -0.643514,-1.540819 -1.438772,-1.540819 z"
   inkscape:connector-curvature="0"
   style="fill:url(#SVGID_1_-7);stroke-width:2.97784257" /><g
   transform="translate(3.3050847,-17.830508)"
   id="g962" /><g
   transform="translate(3.3050847,-17.830508)"
   id="g964" /><g
   transform="translate(3.3050847,-17.830508)"
   id="g966" /><g
   transform="translate(3.3050847,-17.830508)"
   id="g968" /><g
   transform="translate(3.3050847,-17.830508)"
   id="g970" /><g
   transform="translate(3.3050847,-17.830508)"
   id="g972" /><g
   transform="translate(3.3050847,-17.830508)"
   id="g974" /><g
   transform="translate(3.3050847,-17.830508)"
   id="g976" /><g
   transform="translate(3.3050847,-17.830508)"
   id="g978" /><g
   transform="translate(3.3050847,-17.830508)"
   id="g980" /><g
   transform="translate(3.3050847,-17.830508)"
   id="g982" /><g
   transform="translate(3.3050847,-17.830508)"
   id="g984" /><g
   transform="translate(3.3050847,-17.830508)"
   id="g986" /><g
   transform="translate(3.3050847,-17.830508)"
   id="g988" /><g
   transform="translate(3.3050847,-17.830508)"
   id="g990" /><path
   style="opacity:0.5;fill:url(#linearGradient4848);fill-opacity:1.0;stroke:none;stroke-width:0.4592106;stroke-miterlimit:4;stroke-dasharray:none;stroke-opacity:1"
   d="m 28.301607,51.70917 v -6.06158 h 8.449475 8.449476 v 6.06158 6.061581 h -8.449476 -8.449475 z"
   id="path4840"
   inkscape:connector-curvature="0" /></svg>